<?xml version="1.0" encoding="UTF-8"?>
<svg id="Camada_1" data-name="Camada 1" xmlns="http://www.w3.org/2000/svg" xmlns:xlink="http://www.w3.org/1999/xlink" viewBox="0 0 300 300">
  <defs>
    <style>
      .cls-1 {
        fill: #bf895a;
      }

      .cls-2 {
        fill: #efdcdc;
      }

      .cls-3 {
        clip-path: url(#clippath-1);
      }

      .cls-4 {
        fill: #d9a74a;
      }

      .cls-5 {
        fill: #723b3b;
      }

      .cls-6 {
        clip-path: url(#clippath);
      }

      .cls-7 {
        fill: none;
      }
    </style>
    <clipPath id="clippath">
      <rect class="cls-7" x="54" y="85.21" width="192" height="129.57"/>
    </clipPath>
    <clipPath id="clippath-1">
      <rect class="cls-7" x="54" y="85.21" width="192" height="129.57"/>
    </clipPath>
  </defs>
  <rect class="cls-2" y="0" width="300" height="300" rx="134.3" ry="134.3"/>
  <g id="Arte_1" data-name="Arte 1">
    <g class="cls-6">
      <g class="cls-3">
        <path class="cls-4" d="m170.95,126.07c.59-.33,1.16-.66,1.72-1.02.02-.02.06-.04.09-.06.25-.16.5-.33.75-.5.27-.19.54-.38.81-.59.6-.44,1.19-.92,1.75-1.42.19-.17.38-.34.56-.51.24-.23.49-.47.73-.71.23-.23.45-.46.68-.7.07-.07.13-.14.19-.21.18-.2.36-.4.53-.6.49-.56.94-1.13,1.38-1.73.15-.2.29-.4.43-.6.77-1.1,1.45-2.23,2.05-3.42,1.87-3.7,2.9-7.79,3-12.01l.05-1.92-1.93.04c-4.21.1-8.3,1.13-12.01,2.99-1.18.59-2.32,1.27-3.42,2.04-.2.14-.4.29-.61.43h0c-.25.19-.5.37-.74.56-.07.05-.13.1-.19.15-.25.19-.49.4-.73.61-.27.23-.54.47-.8.72-.26.24-.52.49-.78.75-.26.26-.51.51-.76.78-.21.22-.41.45-.61.67-.06.07-.12.15-.18.22-.2.23-.39.46-.57.7-.03.03-.06.07-.09.1-.21.26-.41.52-.6.79-.19.26-.38.53-.57.8-.02.02-.03.05-.05.07-.2.29-.39.6-.58.9-.19.3-.37.61-.55.92-.18.3-.35.62-.51.94-.57-.27-1.16-.52-1.77-.74h0c.1-.33.2-.66.3-.99,0-.03.01-.06.02-.09.07-.28.15-.56.21-.84.02-.09.04-.17.06-.26.07-.31.13-.62.2-.94l.02-.09c.05-.31.11-.61.16-.93,0-.03,0-.06.01-.09.05-.34.1-.68.13-1.01.04-.31.07-.63.09-.94.04-.45.06-.91.07-1.36.01-.3.02-.62.02-.93,0-.28,0-.55-.01-.84,0-.14-.01-.27-.02-.41,0-.07,0-.13-.01-.2,0-.2-.02-.4-.03-.6,0-.06-.01-.11-.01-.16-.02-.27-.05-.55-.08-.82-.01-.11-.02-.22-.04-.33-.03-.3-.07-.59-.12-.89h0c-.04-.25-.07-.49-.12-.73-.24-1.32-.56-2.61-.98-3.86-1.3-3.94-3.46-7.56-6.37-10.62l-1.33-1.39-1.33,1.39c-2.91,3.06-5.07,6.68-6.36,10.62-.42,1.26-.74,2.54-.98,3.86-.04.24-.08.48-.12.73,0,0,0,0,0,0-.02.15-.04.3-.07.45-.02.15-.04.3-.06.44-.01.1-.02.21-.04.33-.03.27-.06.54-.08.82,0,.06,0,.1-.01.16-.01.2-.02.4-.03.6,0,.07-.01.13-.01.2,0,.13-.01.27-.02.41,0,.28-.01.56-.01.84,0,.31,0,.62.02.93.01.45.04.91.07,1.36.02.32.06.63.09.94.04.34.09.67.13,1.01,0,.03,0,.06.01.09.05.31.1.62.16.93,0,.03.01.06.02.09.06.31.13.63.2.94.02.09.04.17.06.26.07.28.14.56.21.84,0,.02.01.06.02.09.09.33.19.66.29.99h0c-.61.22-1.19.47-1.77.74-.03-.06-.06-.1-.08-.15-.14-.27-.28-.53-.43-.79-.17-.31-.35-.62-.54-.92-.32-.52-.66-1.02-1.01-1.51-.13-.18-.26-.35-.39-.53-.26-.34-.52-.68-.8-1.01-.01-.02-.03-.04-.05-.06-.13-.16-.26-.31-.4-.47-.15-.18-.3-.35-.46-.52-.12-.12-.23-.25-.35-.37-.18-.19-.36-.38-.54-.56-.26-.26-.51-.51-.78-.75-.26-.25-.53-.48-.8-.72-.25-.22-.51-.43-.77-.64-.02-.01-.04-.02-.05-.04-.27-.21-.56-.43-.84-.64h0c-.2-.15-.4-.29-.6-.43-1.1-.77-2.24-1.45-3.42-2.05-3.7-1.87-7.79-2.89-12.01-2.99l-1.93-.04.05,1.92c.1,4.22,1.13,8.31,3,12.01.59,1.17,1.28,2.31,2.04,3.4.14.21.29.41.43.62.04.06.08.11.12.16.12.17.24.33.37.49.27.35.56.7.85,1.05.18.21.36.41.55.61.04.06.09.11.15.16.24.26.48.51.74.77.24.24.48.47.73.7.49.47,1,.91,1.53,1.32.26.21.52.42.79.62.27.2.54.4.82.59.24.17.5.34.75.5.03.02.06.04.09.06.56.36,1.13.7,1.72,1.02h-33.82v3.67h36.84l.47-1.13c.3-.73.67-1.47,1.09-2.21l.06-.1c.28-.48.59-.97.92-1.43.14-.18.27-.38.42-.55l.04-.05c1-1.32,2.17-2.48,3.49-3.49.43-.34.9-.67,1.39-.98.12-.07.23-.15.36-.22.12-.07.24-.14.35-.21h.01c1.42-.83,2.93-1.46,4.53-1.89.02,0,.05-.01.07-.02.83-.22,1.66-.38,2.46-.48,1.64-.21,3.28-.21,4.91,0,.82.1,1.67.27,2.53.5,1.59.43,3.12,1.06,4.53,1.89h.01c.12.07.24.15.35.21.12.07.24.14.35.21.47.29.94.63,1.43,1.01,1.29.98,2.46,2.14,3.46,3.46l.04.05c.15.18.28.37.41.54.35.5.68,1.01.98,1.54l.14.24c.35.64.67,1.3.96,1.98l.47,1.13h37.2v-3.67h-34.19Zm-33.94-8.98c-.39.26-.75.53-1.08.79-1.55,1.17-2.94,2.56-4.14,4.14-.18.23-.36.47-.55.72-.09.13-.18.26-.27.39-.08-.04-.16-.08-.24-.13-.17-.09-.33-.17-.5-.27-.59-.32-1.16-.67-1.71-1.05-.19-.13-.39-.26-.58-.4-.09-.06-.18-.13-.27-.2-.16-.12-.32-.24-.48-.36-.12-.09-.24-.19-.36-.29-.14-.11-.28-.23-.42-.35-.24-.19-.47-.4-.7-.62-.28-.25-.56-.52-.83-.79h-.01c-.21-.22-.41-.44-.61-.65-.33-.35-.65-.72-.96-1.1-.21-.26-.42-.52-.62-.78h0c-.2-.27-.39-.53-.58-.81l-.15-.23c-2.29-3.34-3.69-7.17-4.11-11.19,3.86.41,7.55,1.72,10.81,3.84.2.13.4.27.6.41,1.16.81,2.28,1.75,3.33,2.79.31.31.62.63.91.96.2.21.4.44.58.67.06.06.1.11.15.17.22.26.43.53.63.8.23.3.46.62.67.93.21.3.41.62.6.93,0,.01.01.02.01.02.2.32.4.65.57.99.03.05.06.1.09.16.09.16.17.32.26.48,0,0,0,0-.01,0m18.23-10.06c-.01.26-.02.52-.04.77,0,.09-.01.17-.02.26-.02.29-.05.58-.09.87h0c-.04.32-.08.64-.13.94-.04.26-.09.51-.13.77-.01.09-.03.18-.05.27-.03.18-.07.36-.11.54-.04.2-.09.39-.14.58-.04.17-.09.34-.13.52-.09.33-.19.67-.29,1-.46-.09-.91-.16-1.36-.21-1.94-.25-3.89-.25-5.84,0-.45.06-.9.13-1.35.21-.07-.23-.15-.46-.21-.69-.02-.09-.05-.19-.08-.28-.07-.27-.14-.55-.21-.82,0,0,0-.02,0-.03-.07-.28-.13-.57-.18-.85-.02-.08-.04-.16-.05-.24-.05-.25-.09-.51-.13-.77-.05-.3-.09-.62-.13-.93h0c-.04-.3-.06-.59-.09-.88,0-.09-.01-.17-.02-.26-.02-.26-.03-.51-.04-.77-.01-.32-.02-.64-.02-.96,0-1.45.13-2.91.39-4.34,0-.03.01-.06.02-.09.73-4.04,2.46-7.8,5.04-10.98,2.59,3.21,4.33,7,5.06,11.08.26,1.43.38,2.88.38,4.33,0,.32,0,.64-.02.96m13.65,15.97c-.08.05-.16.09-.24.13-.09-.13-.18-.27-.27-.4-.18-.24-.35-.48-.54-.71-1.21-1.57-2.6-2.97-4.13-4.13-.36-.28-.72-.55-1.1-.8,0,0,0,0,0,0,.09-.18.18-.35.28-.52.02-.05.06-.1.09-.15.17-.32.35-.63.54-.93,0-.02.02-.04.03-.05.18-.3.37-.6.57-.89.05-.07.1-.13.14-.2.15-.22.31-.44.47-.65.09-.12.17-.23.26-.34.1-.14.21-.28.32-.4.13-.16.26-.32.39-.47.43-.52.9-1.02,1.38-1.51.53-.53,1.07-1.02,1.62-1.49.56-.46,1.13-.9,1.71-1.3,0,0,0,0,0,0,.2-.13.39-.27.6-.4,3.26-2.12,6.95-3.43,10.81-3.84-.43,4.1-1.89,8-4.26,11.4-.21.3-.43.6-.65.89-.17.22-.33.43-.51.65-.51.63-1.06,1.24-1.64,1.81-.27.27-.55.54-.84.79-.28.26-.56.51-.85.74-.02.02-.04.04-.07.06-.2.17-.4.33-.61.49-.15.12-.29.23-.44.33-.09.07-.18.13-.28.2-.19.14-.38.27-.58.4-.55.37-1.12.72-1.71,1.05-.16.1-.33.19-.5.27"/>
        <path class="cls-1" d="m136.77,116.6c.09.16.17.32.24.48,0,0,0,0,.01,0-.08-.16-.16-.32-.26-.48m-4.59-26.75l-1.76-.78-.69,1.81c-1.52,3.93-2.13,8.1-1.83,12.23,1.18.59,2.33,1.28,3.42,2.05.2.14.4.28.6.43-.72-3.83-.52-7.74.58-11.48,3.42,1.86,6.33,4.49,8.52,7.72.04-.25.08-.49.12-.73.24-1.32.56-2.6.98-3.86-2.71-3.15-6.09-5.67-9.94-7.38"/>
        <path class="cls-1" d="m162.6,117.08s0,0,0,0c.09-.18.18-.35.27-.53-.09.17-.18.34-.28.52m7.31-26.2l-.69-1.81-1.77.78c-3.86,1.71-7.24,4.23-9.94,7.37.42,1.25.74,2.55.98,3.86.04.24.08.48.12.72,2.19-3.21,5.1-5.84,8.52-7.71,1.1,3.74,1.3,7.65.58,11.48.2-.15.4-.29.61-.43,1.1-.77,2.23-1.45,3.42-2.04.31-4.13-.3-8.3-1.82-12.23"/>
        <path class="cls-1" d="m194.86,115.82c-3.93-1.51-8.1-2.13-12.24-1.82-.59,1.18-1.28,2.32-2.05,3.42-.14.2-.28.4-.43.6,3.83-.72,7.75-.52,11.48.58-1.57,2.88-3.71,5.44-6.28,7.47h5.39c2.13-2.28,3.87-4.92,5.15-7.79l.78-1.76-1.8-.69Z"/>
        <path class="cls-1" d="m119.48,118.02c-.15-.21-.29-.41-.43-.62-.76-1.09-1.44-2.23-2.04-3.4-4.14-.31-8.31.3-12.24,1.82l-1.8.69.78,1.76c1.27,2.87,3.01,5.51,5.13,7.79h5.39c-2.56-2.04-4.7-4.59-6.27-7.47,3.74-1.1,7.65-1.3,11.48-.58"/>
        <path class="cls-5" d="m68.08,159.73v-16.03c0-1.3-.19-2.43-.57-3.38-.38-.95-.88-1.72-1.51-2.32-.62-.6-1.32-1.03-2.07-1.3-.76-.27-1.52-.41-2.28-.41h-1.22c-.76,0-1.53.13-2.32.41-.79.27-1.48.71-2.08,1.3-.6.6-1.08,1.37-1.46,2.32-.38.95-.57,2.08-.57,3.38v43.05c0,1.3.19,2.43.57,3.38.38.95.87,1.72,1.46,2.32.6.6,1.29,1.03,2.08,1.3.79.27,1.56.41,2.32.41h.65c.71,0,1.47-.2,2.28-.61.81-.41,1.57-.99,2.28-1.75l.49,1.87h1.95v-23.03h-6.92v3.17h3.17v12.37c0,1.74-.31,2.97-.94,3.7-.63.73-1.32,1.1-2.08,1.1h-.57c-.76,0-1.45-.37-2.07-1.1-.63-.73-.94-1.97-.94-3.7v-41.91c0-1.74.31-2.97.94-3.7.62-.73,1.32-1.1,2.07-1.1h.57c.76,0,1.45.36,2.08,1.1.62.73.94,1.97.94,3.7v15.46h3.74Z"/>
        <rect class="cls-5" x="82.16" y="136.78" width="3.74" height="56.89"/>
        <path class="cls-5" d="m114.35,191.14c-.19-1.25-.29-3.34-.29-6.27v-14.08c0-1.73-.27-3.03-.82-3.87-.54-.84-1.22-1.37-2.03-1.59.82-.27,1.49-.83,2.03-1.67.54-.84.82-2.13.82-3.87v-15.62c0-2.5-.64-4.35-1.91-5.58-1.27-1.22-2.78-1.83-4.52-1.83h-7.65v56.89h3.74v-26.94h4.07c1.68,0,2.52,1.46,2.52,4.39v13.76c0,2.55.06,4.48.16,5.78.11,1.3.3,2.31.57,3.01h3.74c-.11-.43-.26-1.27-.45-2.52m-4.03-31.58c0,2.88-.84,4.31-2.52,4.31h-4.07v-23.93h3.58c.76,0,1.45.37,2.08,1.1.62.73.94,1.97.94,3.7v14.81Z"/>
        <path class="cls-5" d="m135.36,136.78h-4.88l-5.53,56.89h3.34l1.55-16.2h5.94l1.55,16.2h3.66l-5.62-56.89Zm-5.21,37.84l2.61-27.02h.08l2.61,27.02h-5.29Z"/>
        <path class="cls-5" d="m163.74,170.68c-1.09-1.98-2.27-3.91-3.54-5.78-1.27-1.87-2.45-3.8-3.54-5.78-1.09-1.98-1.63-4.24-1.63-6.8v-8.06c0-1.74.31-2.97.93-3.7.61-.73,1.3-1.1,2.05-1.1h.56c.75,0,1.43.37,2.05,1.1.62.73.93,1.97.93,3.7v15.46h3.5v-16.03c0-1.3-.19-2.43-.57-3.38-.38-.95-.89-1.72-1.52-2.32-.63-.6-1.32-1.03-2.09-1.3-.77-.27-1.53-.41-2.29-.41h-.9c-.76,0-1.54.13-2.33.41-.79.27-1.49.71-2.09,1.3-.6.6-1.09,1.37-1.47,2.32-.38.95-.57,2.08-.57,3.38v9.19c0,1.74.26,3.34.77,4.8.52,1.47,1.15,2.85,1.91,4.15.76,1.3,1.59,2.56,2.48,3.79.9,1.22,1.72,2.47,2.48,3.74.76,1.27,1.4,2.62,1.91,4.03.51,1.41.77,2.96.77,4.64v8.14c0,1.74-.34,2.97-1,3.7-.67.73-1.38,1.1-2.13,1.1h-.56c-.75,0-1.46-.36-2.13-1.1-.67-.73-1-1.97-1-3.7v-15.46h-3.5v16.03c0,1.3.19,2.43.57,3.38.38.95.89,1.72,1.52,2.32.63.6,1.34,1.03,2.13,1.3.79.27,1.57.41,2.33.41h1.14c.82,0,1.61-.14,2.37-.41.77-.27,1.45-.71,2.05-1.3.6-.6,1.09-1.37,1.47-2.32.38-.95.57-2.08.57-3.38v-9.19c0-2.6-.54-4.9-1.63-6.88"/>
        <path class="cls-5" d="m191.66,170.68c-1.09-1.98-2.27-3.91-3.54-5.78-1.27-1.87-2.45-3.8-3.54-5.78-1.09-1.98-1.63-4.24-1.63-6.8v-8.06c0-1.74.31-2.97.93-3.7.61-.73,1.3-1.1,2.05-1.1h.56c.75,0,1.43.37,2.05,1.1.61.73.92,1.97.92,3.7v15.46h3.5v-16.03c0-1.3-.19-2.43-.57-3.38-.38-.95-.89-1.72-1.52-2.32-.63-.6-1.32-1.03-2.09-1.3-.76-.27-1.53-.41-2.29-.41h-.9c-.76,0-1.54.13-2.33.41-.79.27-1.49.71-2.09,1.3-.6.6-1.09,1.37-1.47,2.32-.38.95-.57,2.08-.57,3.38v9.19c0,1.74.26,3.34.77,4.8.52,1.47,1.15,2.85,1.91,4.15.76,1.3,1.59,2.56,2.48,3.79.9,1.22,1.72,2.47,2.48,3.74.76,1.27,1.4,2.62,1.91,4.03.51,1.41.77,2.96.77,4.64v8.14c0,1.74-.34,2.97-1,3.7-.67.73-1.38,1.1-2.13,1.1h-.56c-.75,0-1.46-.36-2.13-1.1-.67-.73-1-1.97-1-3.7v-15.46h-3.5v16.03c0,1.3.19,2.43.57,3.38.38.95.89,1.72,1.52,2.32.63.6,1.34,1.03,2.13,1.3.79.27,1.57.41,2.33.41h1.14c.82,0,1.61-.14,2.37-.41.76-.27,1.45-.71,2.05-1.3.6-.6,1.09-1.37,1.47-2.32.38-.95.57-2.08.57-3.38v-9.19c0-2.6-.54-4.9-1.63-6.88"/>
        <path class="cls-5" d="m220.53,140.32c-.38-.95-.88-1.72-1.5-2.32-.63-.6-1.32-1.03-2.08-1.3-.76-.27-1.52-.41-2.28-.41h-1.22c-.76,0-1.53.13-2.32.41-.79.27-1.48.71-2.07,1.3-.6.6-1.09,1.37-1.47,2.32-.38.95-.57,2.08-.57,3.38v43.05c0,1.3.19,2.43.57,3.38.38.95.87,1.72,1.47,2.32.6.6,1.29,1.03,2.07,1.3.79.27,1.56.41,2.32.41h1.22c.76,0,1.52-.14,2.28-.41.76-.27,1.45-.71,2.08-1.3.62-.6,1.12-1.37,1.5-2.32.38-.95.57-2.08.57-3.38v-43.05c0-1.3-.19-2.43-.57-3.38m-3.17,45.86c0,1.74-.31,2.97-.94,3.7-.62.73-1.32,1.1-2.08,1.1h-.57c-.76,0-1.45-.36-2.08-1.1-.62-.73-.94-1.97-.94-3.7v-41.91c0-1.74.31-2.97.94-3.7.62-.73,1.32-1.1,2.08-1.1h.57c.76,0,1.45.37,2.08,1.1.62.73.94,1.97.94,3.7v41.91Z"/>
        <polygon class="cls-5" points="238.92 190.82 238.92 136.78 235.17 136.78 235.17 193.67 246 193.67 246 190.82 238.92 190.82"/>
        <path class="cls-1" d="m122.31,208.87c-.34-.46-.71-.9-1.1-1.31-.4-.41-.76-.84-1.1-1.28-.34-.44-.51-.97-.51-1.6v-1.66c0-.45.09-.8.28-1.04.19-.24.4-.37.62-.37h.17c.24,0,.46.12.63.37.18.24.27.59.27,1.04v3.16h1.13v-3.19c0-.79-.2-1.39-.61-1.79-.41-.4-.88-.61-1.43-.61h-.26c-.55,0-1.02.21-1.43.62-.4.41-.61,1.01-.61,1.78v1.78c0,.7.16,1.28.49,1.76.33.48.7.93,1.1,1.34.4.41.77.83,1.1,1.26.33.42.49.93.49,1.51v1.69c0,.45-.09.8-.27,1.03-.18.24-.38.35-.61.35h-.25c-.26,0-.49-.12-.68-.35-.19-.23-.28-.58-.28-1.03v-3.19h-1.1v3.19c0,.79.2,1.39.61,1.79.41.4.88.61,1.43.61h.42c.51,0,.96-.2,1.37-.61.4-.41.61-1,.61-1.79v-1.78c0-.66-.17-1.22-.51-1.68"/>
        <path class="cls-1" d="m136.55,201.72v-.99h-1.21v-4.57l-1.21.11v4.46h-.73v.99h.73v10.64c0,.79.19,1.41.58,1.85.38.44,1,.62,1.85.52v-.99c-.38.06-.67-.04-.89-.28-.22-.24-.32-.61-.32-1.1v-10.64h1.21Z"/>
        <path class="cls-1" d="m150.94,201.23c-.4-.4-.88-.61-1.43-.61h-.4c-.54,0-1.01.2-1.41.61-.4.4-.59,1-.59,1.79v9.34c0,.79.2,1.39.59,1.79.4.41.86.61,1.41.61h.4c.55,0,1.02-.2,1.43-.61.41-.4.61-1,.61-1.79v-9.34c0-.79-.2-1.39-.61-1.79m-.61,11.13c0,.47-.09.82-.28,1.04-.19.23-.4.34-.62.34h-.17c-.24,0-.46-.11-.65-.34-.19-.23-.28-.57-.28-1.04v-9.34c0-.47.09-.82.28-1.04.19-.23.4-.34.65-.34h.17c.23,0,.43.11.62.34.19.23.28.57.28,1.04v9.34Z"/>
        <path class="cls-1" d="m166.3,201.41c-.26-.51-.71-.76-1.33-.76h-.11c-.26,0-.53.09-.79.27-.26.18-.51.41-.73.69v-.88h-1.21v13.97h1.21v-11.57c.04-.43.17-.79.4-1.06.23-.27.45-.41.68-.41h.08c.23,0,.43.11.62.34.19.23.28.57.28,1.04v3.44h1.21v-3.44c0-.68-.1-1.22-.31-1.64"/>
        <path class="cls-1" d="m181.61,207.93v-4.88c0-.79-.2-1.39-.61-1.79-.41-.4-.88-.6-1.42-.6h-.4c-.55,0-1.02.21-1.41.62-.4.41-.59,1-.59,1.78v9.34c0,.79.2,1.39.59,1.79.4.4.84.61,1.33.61h.48c.54,0,1.02-.2,1.42-.61.4-.4.61-1,.61-1.79v-3.5h-1.21v3.5c0,.47-.1.82-.28,1.05-.19.23-.4.34-.62.34h-.26c-.21,0-.4-.11-.58-.34-.18-.23-.27-.57-.27-1.05v-4.46h3.22Zm-3.22-4.88c0-.47.09-.82.28-1.04.19-.23.4-.34.65-.34h.17c.23,0,.43.11.62.34.19.23.28.57.28,1.04v4.04h-2v-4.04Z"/>
      </g>
    </g>
  </g>
</svg>