<?xml version="1.0" encoding="UTF-8"?>
<svg id="Camada_1" data-name="Camada 1" xmlns="http://www.w3.org/2000/svg" xmlns:xlink="http://www.w3.org/1999/xlink" viewBox="0 0 300 300">
  <defs>
    <style>
      .cls-1 {
        clip-path: url(#clippath-1);
      }

      .cls-2 {
        fill: #1b98e0;
      }

      .cls-3 {
        fill: #0071bc;
      }

      .cls-4 {
        fill: #ff7122;
      }

      .cls-5 {
        clip-path: url(#clippath);
      }

      .cls-6 {
        fill: none;
      }

      .cls-7 {
        fill: #006494;
      }

      .cls-8 {
        fill: #fff7eb;
      }

      .cls-9 {
        fill: #13293d;
      }
    </style>
    <clipPath id="clippath">
      <rect class="cls-6" x="33.33" y="119.43" width="233.33" height="76.24"/>
    </clipPath>
    <clipPath id="clippath-1">
      <rect class="cls-6" x="33.33" y="119.43" width="233.33" height="76.24"/>
    </clipPath>
  </defs>
  <rect class="cls-9" y="0" width="300" height="300" rx="134.3" ry="134.3"/>
  <g id="MARCA">
    <g class="cls-5">
      <g class="cls-1">
        <path class="cls-8" d="m148.58,126.11c0,1.64-.57,3.01-1.7,4.12-1.14,1.11-2.53,1.66-4.16,1.66s-2.93-.56-4.04-1.66c-1.11-1.11-1.67-2.48-1.67-4.12s.56-3.01,1.67-4.12c1.11-1.11,2.46-1.66,4.04-1.66s3.03.56,4.16,1.66c1.14,1.11,1.7,2.49,1.7,4.12m-.63,49.72h-10.31v-38.46h10.31v38.46Z"/>
        <path class="cls-8" d="m210.87,145.86c-1.74,0-3.67.25-5.79.75-2.11.5-3.91,1.1-5.39,1.78l-2.77-8.56c1.37-.9,3.57-1.7,6.58-2.42,3.01-.71,5.42-1.07,7.22-1.07,3.07,0,5.87.61,8.41,1.82,2.54,1.22,4.56,2.91,6.07,5.07,1.51,2.17,2.26,4.6,2.26,7.3v25.29h-9.35l-.81-2.5c-1.69,1.58-4.93,3.45-8.48,3.45-4.6,0-8.06-1.12-10.39-3.37-2.33-2.25-3.49-5.27-3.49-9.08s1.32-6.94,3.97-9.08c2.64-2.14,6.18-3.21,10.63-3.21h7.53c-.05-1.95-.62-3.48-1.7-4.56-1.08-1.08-2.58-1.63-4.48-1.63m-1.51,13.08c-1.69,0-3.05.53-4.08,1.59-1.03,1.06-1.55,2.33-1.55,3.81,0,1.16.46,2.17,1.39,3.01.92.85,2.1,1.27,3.53,1.27,3.07,0,5.89-1.27,8.48-3.81v-5.87h-7.77Z"/>
        <path class="cls-4" d="m232.22,128.51c.26-1.69,2.09-2.5,3.45-2.4.08,0,1.65.14,2.43,1.43.1.17.44.76.39,2.08-.02.4-.12,2.08-1.36,4.09-1.17,1.9-2.71,3.04-3.75,3.67l-.86-2.64c.54-.36,1.28-.96,1.88-1.9.21-.33.37-.65.49-.94-1.75-.25-2.92-1.85-2.68-3.39"/>
        <path class="cls-8" d="m250.65,176.78c-1.96,0-4.26-.34-6.9-1.03-2.64-.69-4.78-1.66-6.42-2.93l2.33-7.2c3.91,1.74,8.03,2.84,10.83,2.84,1.59,0,3.04-.29,4.36-.87,1.32-.58,1.98-1.4,1.98-2.46,0-2.06-2.25-3.78-6.74-5.15-3.65-1.22-6.69-2.77-9.12-4.68-2.43-1.9-3.65-4.31-3.65-7.22,0-3.65,1.35-6.51,4.04-8.6,2.7-2.09,6.34-3.13,10.94-3.13,1.8,0,3.99.37,6.58,1.11,2.59.74,4.78,1.72,6.58,2.93l-2.35,7.26c-2.01-.9-4.53-1.92-6.09-2.35-1.56-.42-3.19-.63-4.88-.63-1.32,0-2.42.33-3.29.99-.87.66-1.31,1.44-1.31,2.34,0,.69.52,1.31,1.55,1.86,1.03.56,2.52,1.18,4.48,1.86,3.75,1.38,6.87,3.12,9.36,5.23,2.48,2.12,3.73,4.71,3.73,7.77,0,3.86-1.38,6.83-4.12,8.92-2.75,2.09-6.71,3.13-11.89,3.13"/>
        <polygon class="cls-8" points="97.31 137.37 128.21 137.37 128.21 143.11 107.08 167.5 128.21 167.5 128.21 175.83 100.26 175.83 96.98 165.71 114.25 145.86 100.06 145.86 97.31 137.37"/>
        <polygon class="cls-8" points="167.69 119.43 167.69 175.42 157.47 175.42 157.47 120.31 167.69 119.43"/>
        <polygon class="cls-8" points="187.44 119.43 187.44 175.83 177.21 175.83 177.21 120.31 187.44 119.43"/>
        <path class="cls-2" d="m88.44,152.07c0,2.13-.24,4.19-.69,6.18h-24.11l2.01-6.18h0s2.01-6.19,2.01-6.19h0l2.75-8.49,3.17-9.79s0,0,0,0c8.83,4.59,14.87,13.82,14.87,24.46"/>
        <path class="cls-8" d="m60.89,166.74h23.33c-2.61,4.14-6.29,7.53-10.65,9.8-2.65,1.38-5.55,2.34-8.61,2.79-1.33.2-2.69.3-4.08.3s-2.74-.1-4.07-.3l4.08-12.58h0Z"/>
        <path class="cls-4" d="m60.89,137.39h-23.32c2.61-4.13,6.28-7.52,10.64-9.78,2.65-1.38,5.55-2.34,8.61-2.79,1.33-.2,2.69-.3,4.07-.3s2.74.1,4.07.3l-4.07,12.57h0Z"/>
        <path class="cls-7" d="m58.14,145.88l-2,6.19-7.93,24.47c-8.83-4.59-14.87-13.82-14.87-24.47,0-2.13.24-4.2.7-6.19h24.1Z"/>
        <polyline class="cls-3" points="60.89 166.75 60.89 166.74 60.88 166.74"/>
        <path class="cls-4" d="m205.37,186.99c0,.93-.18,1.75-.54,2.45-.36.71-.88,1.26-1.57,1.65-.68.39-1.5.59-2.44.59-.5,0-1.03-.14-1.59-.42v4.41h-2.36v-13.1h1.21l.48.6c.72-.56,1.5-.84,2.35-.84,1.38,0,2.47.42,3.27,1.25.8.84,1.2,1.97,1.2,3.4m-2.45,0c0-.78-.19-1.41-.56-1.9-.37-.48-.89-.72-1.55-.72-.51,0-1.04.18-1.58.53v4.23c.5.34,1.03.51,1.58.51.65,0,1.16-.25,1.54-.74.38-.49.57-1.13.57-1.91"/>
        <path class="cls-4" d="m217.39,184.92c-.59.29-1.15.67-1.66,1.12v5.42h-2.38v-8.89h1.25l.79,1.48c.43-.38.93-.72,1.5-1.03.57-.3,1.08-.46,1.52-.46l.76,1.92c-.4,0-1.18.13-1.77.43"/>
        <path class="cls-4" d="m229.53,179.98c0,.38-.13.7-.39.95-.26.26-.58.38-.96.38s-.68-.13-.93-.38c-.26-.26-.38-.57-.38-.95s.13-.7.38-.95c.26-.26.57-.38.93-.38s.7.13.96.38c.26.26.39.57.39.95m-.15,11.49h-2.38v-8.89h2.38v8.89Z"/>
        <path class="cls-4" d="m251.22,185.53v5.94h-2.38v-5.46c0-.57-.09-1.01-.27-1.3-.18-.29-.45-.44-.83-.44s-.7.09-1.01.26c-.31.17-.7.43-1.17.77v6.17h-2.38v-5.46c0-.57-.09-1.01-.27-1.3-.18-.29-.45-.44-.83-.44s-.7.09-1.01.26c-.31.17-.7.43-1.19.79v6.16h-2.38v-8.89h1.64l.32.95c.55-.39,1.12-.7,1.7-.92.59-.22,1.1-.33,1.54-.33,1.21,0,2.03.4,2.45,1.21.55-.38,1.11-.67,1.69-.89.57-.21,1.08-.32,1.52-.32,1.01,0,1.74.27,2.19.81s.67,1.35.67,2.43"/>
        <path class="cls-4" d="m262.58,182.34c.89,0,1.64.21,2.25.62.61.42,1.06.97,1.36,1.68.29.7.44,1.49.44,2.35v.73h-5.99c.12.62.39,1.1.8,1.43.41.33,1.04.49,1.88.49.49,0,.93-.07,1.32-.2.39-.13.81-.33,1.26-.59l.7,1.72c-.45.35-.94.63-1.47.82-.53.19-1.15.28-1.87.28-1.69,0-2.97-.41-3.84-1.24-.87-.82-1.31-1.96-1.31-3.42,0-.94.18-1.76.54-2.47.36-.71.88-1.25,1.55-1.64.67-.38,1.47-.58,2.38-.58m-.05,2.03c-.49,0-.9.15-1.23.45-.33.3-.54.74-.64,1.31h3.72c-.12-.59-.34-1.03-.65-1.32-.31-.29-.71-.44-1.2-.44"/>
      </g>
    </g>
  </g>
</svg>