<?xml version="1.0" encoding="UTF-8"?>
<svg id="Camada_1" data-name="Camada 1" xmlns="http://www.w3.org/2000/svg" xmlns:xlink="http://www.w3.org/1999/xlink" viewBox="0 0 379.39 69.31">
  <defs>
    <style>
      .cls-1 {
        fill: #fff;
      }

      .cls-2 {
        clip-path: url(#clippath-2);
      }

      .cls-3 {
        fill: none;
      }

      .cls-4 {
        clip-path: url(#clippath-3);
      }
    </style>
    <clipPath id="clippath-2">
      <rect class="cls-3" y="0" width="379.39" height="69.31"/>
    </clipPath>
    <clipPath id="clippath-3">
      <rect class="cls-3" y="0" width="379.39" height="69.31"/>
    </clipPath>
  </defs>
  <g id="MARCA_HORIZONTAL" data-name="MARCA HORIZONTAL">
    <g class="cls-2">
      <g class="cls-4">
        <path class="cls-1" d="m25.24,26.45c-1.96,1.48-5.45,4.55-7.97,9.61-2.26,4.54-2.75,8.68-2.85,11.06-.47-2.3-.55-4.22-.55-5.54,0-9.23,5.54-16.63,5.54-16.63.72-.96,1.88-2.38,3.56-3.91.3.89.66,1.83,1.07,2.8.39.93.8,1.8,1.2,2.61"/>
        <path class="cls-1" d="m69.57,29.43c.4.91.79,1.94,1.15,3.08.32,1.02.56,1.98.74,2.86.55.24,1.32.61,2.19,1.14.98.59,1.7,1.04,2.36,1.75.33.36,1.57,1.72,1.6,3.31.05,3.07-4.42,5.33-6.15,6.2-1.62.82-2.95,1.17-3.16,1.24-6.59,2.24-16.12,3.65-26.71,3.65-6.09,0-11.82-.47-16.85-1.29,1.66,2.82,3.67,4.64,4.7,5.45.36.28.72.54,1.09.79,3.52.39,7.23.59,11.07.59,9.02,0,17.37-1.15,24.19-3.09,1.29-.37,2.53-.76,3.7-1.19,8.41-3.03,13.7-7.4,13.7-12.27s-5.25-9.21-13.6-12.24"/>
        <path class="cls-1" d="m14.35,48.84c-.65-.22-1.56-.56-2.63-1.06-1.66-.78-2.68-1.26-3.72-2.23-.6-.56-2.02-1.88-2.43-3.97-.29-1.45.03-2.62.21-3.3,1.3-4.64,6.89-8.26,7.82-8.85C5.25,32.45,0,36.82,0,41.67s5.29,9.25,13.71,12.28c.27.1.55.19.83.28-.16-1.81-.22-3.61-.18-5.39"/>
        <path class="cls-1" d="m54.48,27.03c-.22-.19-1.02-.88-2.17-1.64-.11-.07-.72-.44-1.56-.9-.17-.1-1.66-.89-3.08-1.44-.54.5-2.76,2.45-6.08,2.45-4.65,0-7.3-3.77-7.53-4.11-.69-1.12-1.14-2.41-1.28-3.71-.04-.34-.06-.67-.06-1.01,0-.01,0-.02,0-.04,0,0,0,0,0-.01,0-.25.02-.5.04-.75,0-.08.01-.17.02-.25.03-.23.06-.46.11-.69.01-.07.03-.13.04-.2.09-.43.22-.86.37-1.28l.03-.02c1.29-3.31,4.52-5.68,8.26-5.68,3.23,0,6.07,1.77,7.62,4.38,2.06.53,4.62,1.37,7.02,2.69.68.37,1.34.77,1.98,1.19C57.87,7.17,50.5,0,41.59,0s-16.63,7.51-16.63,16.63,16.63,31.88,16.63,31.88c0,0,8.29-11.34,13.17-21.22-.09-.09-.18-.17-.28-.26"/>
        <path class="cls-1" d="m36.42,19.94c.59-.17,1.51-.41,2.67-.57.81-.11,4.9-.62,9.28.98,1.58.58,3.27,1.47,3.7,1.7,1.03.56,1.74,1,1.74,1,1.32.87,2.24,1.66,2.5,1.89,4.69,4.13,6.28,9.34,6.65,10.66.19.69.78,2.93.81,5.97.01,1.33-.08,2.61-.26,3.83-.09.49-.24,1.27-.52,2.24,1.58-.38,3.06-.79,4.41-1.25l.31-.1c.33-.11.76-.25,1.25-.44.21-1.34.34-2.76.34-4.27-.03-9.87-5.54-19.46-14.42-24.33-4.66-2.56-10.12-3.17-10.12-3.17-.96-.13-2.02-.22-3.18-.23-2.21-.02-4.13.25-5.7.59-.2.53-.52,1.58-.37,2.92.14,1.21.6,2.1.89,2.57"/>
        <path class="cls-1" d="m53.63,60.3c-5.09,3.22-10.19,3.45-12.04,3.45-2.2,0-7.69-.32-13-4.1-.31-.22-.59-.43-.86-.64,0,0-.01,0-.02-.01-1.25-.99-5.92-4.89-7.71-11.88-1.08-4.23-.66-7.82-.27-9.8-.69,1.35-1.55,3.36-2.07,5.9-.39,1.88-.46,3.37-.48,3.99-.05,1.72-.22,7.83,3.89,12.96,1.48,1.85,2.99,2.91,4.7,4.1,2.64,1.84,5.25,3.01,7.49,3.75,1.24.39,2.73.76,4.43,1,1.44.2,2.75.28,3.9.27h0c2.41,0,6.58-.31,11.22-2.36,2.06-.91,6.74-3.29,10.67-8.35-3.11.74-6.41,1.31-9.84,1.71"/>
        <path class="cls-1" d="m302.63,42.74c.21,1.21.37,2.66.37,4.3,0,1.73-.16,3.26-.37,4.52h-22.16c-.27-5.01-.43-10.25-.45-15.7-.02-6.33.14-12.38.45-18.13h9.36c-.27,4.53-.43,9.29-.44,14.28,0,3.7.07,7.28.22,10.73h13.02Z"/>
        <path class="cls-1" d="m120.69,46.91c-4.03,0-8.14,0-12.17,0-.48,1.55-.96,3.11-1.44,4.66h-10.05c1.62-5.39,3.45-11.01,5.53-16.81,2.15-6,4.38-11.67,6.63-17.01h11.03c2.25,5.34,4.48,11.02,6.63,17.01,2.08,5.8,3.91,11.42,5.53,16.81h-10.25l-1.44-4.66Zm-2.83-8.63c-.48-1.35-.96-2.7-1.46-4.06-.6-1.65-1.2-3.27-1.8-4.89-.57,1.51-1.13,3.04-1.69,4.59-.53,1.47-1.04,2.92-1.54,4.36h6.49Z"/>
        <path class="cls-1" d="m168.31,31.42v3.24c.03,1.67-.13,4.61-1.63,7.82-1.48,3.17-3.51,5.03-4.07,5.52-.48.42-1.61,1.37-3.27,2.23-3.67,1.91-7.11,1.93-8.24,1.93-1.54,0-8.93-.24-13.93-6.37-2.44-2.99-3.87-6.84-3.87-11.14,0-9.95,7.75-17.5,17.99-17.5,5.78,0,10.93,2.35,13.92,6.18l-7.06,5.64c-1.57-1.77-3.97-2.89-6.67-2.89-4.85,0-8.58,3.68-8.58,8.58s3.68,8.58,8.53,8.58c2.94,0,5.34-1.37,6.57-3.48h-6.52c-.21-1.14-.37-2.53-.38-4.12,0-1.63.16-3.05.38-4.22h16.81Z"/>
        <path class="cls-1" d="m186.14,41.08h-3.33l.39,10.49h-9.36c-.28-5.29-.45-10.85-.45-16.65,0-5.99.16-11.73.45-17.18h15.2c7.11,0,12.5,5.1,12.5,11.91,0,4.31-2.25,7.84-5.74,9.8l6.77,12.11h-11.23l-5.2-10.49Zm-3.4-8.14h6.09c1.76,0,3.09-1.37,3.09-3.19s-1.32-3.19-3.09-3.19h-5.99l-.1,6.37Z"/>
        <path class="cls-1" d="m205.21,34.65c0-9.95,7.75-17.5,17.99-17.5s17.99,7.55,17.99,17.5-7.75,17.5-17.99,17.5-17.99-7.55-17.99-17.5m26.37,0c0-4.85-3.63-8.48-8.38-8.48s-8.38,3.63-8.38,8.48,3.63,8.48,8.38,8.48,8.38-3.63,8.38-8.48"/>
        <path class="cls-1" d="m274.93,29.75c0,6.86-5.39,12.01-12.5,12.01h-6.69s.37,9.8.37,9.8h-9.36c-.29-5.43-.46-11.14-.45-17.11,0-5.83.17-11.41.45-16.72h15.69c7.11,0,12.5,5.15,12.5,12.01m-9.61,0c0-1.81-1.32-3.19-3.09-3.19-2.16,0-4.32,0-6.48,0-.03,1.14-.05,2.29-.07,3.45-.01.98-.02,1.96-.03,2.93,2.19,0,4.38,0,6.58,0,1.76,0,3.09-1.37,3.09-3.19"/>
        <path class="cls-1" d="m378.94,17.74c.34,6.35.51,13.06.44,20.08-.05,4.74-.2,9.33-.44,13.75h-9.36l-11.63-18c0,2.04,0,4.11.04,6.2.07,4.04.21,7.97.41,11.8h-9.36c-.28-5.2-.44-10.65-.45-16.34-.01-6.1.16-11.94.45-17.49h9.36l11.63,18c.01-2.88-.01-5.84-.09-8.87-.08-3.12-.2-6.17-.36-9.13h9.36Z"/>
        <path class="cls-1" d="m331.82,46.91c-4.03,0-8.14,0-12.17,0-.48,1.55-.96,3.11-1.44,4.66h-10.05c1.62-5.39,3.45-11.01,5.53-16.81,2.15-6,4.38-11.67,6.63-17.01h11.03c2.25,5.34,4.48,11.02,6.63,17.01,2.08,5.8,3.91,11.42,5.53,16.81h-10.25l-1.44-4.66Zm-2.83-8.63c-.48-1.35-.96-2.7-1.46-4.06-.6-1.65-1.2-3.27-1.8-4.89-.57,1.51-1.13,3.04-1.69,4.59-.53,1.47-1.04,2.92-1.54,4.36h6.49Z"/>
        <polygon class="cls-1" points="175.8 60.68 175.8 60.99 173.42 60.99 173.42 57.34 175.77 57.34 175.77 57.65 173.75 57.65 173.75 59 175.6 59 175.6 59.31 173.75 59.31 173.75 60.68 175.8 60.68"/>
        <polygon class="cls-1" points="182.19 57.34 182.19 60.99 181.84 60.99 179.52 57.86 179.52 60.99 179.2 60.99 179.2 57.34 179.55 57.34 181.87 60.47 181.87 57.34 182.19 57.34"/>
        <path class="cls-1" d="m189.31,59.12v.11c0,1.05-.79,1.83-1.84,1.83s-1.9-.81-1.9-1.89.82-1.89,1.91-1.89c.66,0,1.23.31,1.56.78l-.25.19c-.27-.4-.75-.66-1.3-.66-.89,0-1.57.68-1.57,1.58s.68,1.58,1.57,1.58c.81,0,1.44-.56,1.49-1.33h-1.34v-.29h1.68Z"/>
        <polygon class="cls-1" points="195.03 60.68 195.03 60.99 192.66 60.99 192.66 57.34 195.01 57.34 195.01 57.65 192.98 57.65 192.98 59 194.83 59 194.83 59.31 192.98 59.31 192.98 60.68 195.03 60.68"/>
        <polygon class="cls-1" points="201.43 57.34 201.43 60.99 201.07 60.99 198.75 57.86 198.75 60.99 198.43 60.99 198.43 57.34 198.78 57.34 201.1 60.47 201.1 57.34 201.43 57.34"/>
        <polygon class="cls-1" points="207.96 57.34 207.96 60.99 207.64 60.99 207.64 59.31 205.33 59.31 205.33 60.99 205.01 60.99 205.01 57.34 205.33 57.34 205.33 59 207.64 59 207.64 57.34 207.96 57.34"/>
        <path class="cls-1" d="m213.91,59.99h-1.92l-.42,1h-.35l1.54-3.65h.39l1.54,3.65h-.37l-.42-1Zm-.12-.3l-.84-2-.83,2h1.67Z"/>
        <path class="cls-1" d="m218.87,59.45h-.59v1.55h-.32v-3.65h1.43c.61,0,1.07.46,1.07,1.06s-.46,1.05-1.07,1.05h-.12l1.26,1.55h-.4l-1.25-1.55Zm-.59-.29h1.1c.42,0,.75-.32.75-.76s-.32-.76-.75-.76h-1.1v1.51Z"/>
        <rect class="cls-1" x="223.84" y="57.34" width=".32" height="3.65"/>
        <path class="cls-1" d="m230.11,59.99h-1.92l-.42,1h-.35l1.54-3.65h.39l1.54,3.65h-.37l-.42-1Zm-.12-.3l-.84-2-.83,2h1.67Z"/>
        <polygon class="cls-1" points="240.56 60.68 240.56 60.99 238.18 60.99 238.18 57.34 240.53 57.34 240.53 57.65 238.5 57.65 238.5 59 240.35 59 240.35 59.31 238.5 59.31 238.5 60.68 240.56 60.68"/>
        <path class="cls-1" d="m250.34,59.99h-1.92l-.42,1h-.35l1.54-3.65h.39l1.54,3.65h-.37l-.42-1Zm-.12-.3l-.84-2-.83,2h1.67Z"/>
        <path class="cls-1" d="m254.05,60.48l.18-.24c.27.3.71.52,1.2.52.55,0,.98-.29.98-.7,0-.54-.71-.69-1.04-.76-.56-.12-1.21-.39-1.21-1.03,0-.59.53-.98,1.25-.98.5,0,.92.19,1.16.47l-.17.24c-.18-.22-.56-.41-1-.41-.52,0-.92.28-.92.67,0,.49.59.66.97.73.37.07,1.29.31,1.29,1.06,0,.6-.58,1.02-1.32,1.02-.54,0-1.06-.22-1.38-.58"/>
        <path class="cls-1" d="m259.8,60.48l.18-.24c.27.3.71.52,1.2.52.55,0,.98-.29.98-.7,0-.54-.71-.69-1.04-.76-.56-.12-1.21-.39-1.21-1.03,0-.59.53-.98,1.25-.98.5,0,.92.19,1.16.47l-.17.24c-.18-.22-.56-.41-1-.41-.52,0-.92.28-.92.67,0,.49.59.66.97.73.37.07,1.29.31,1.29,1.06,0,.6-.58,1.02-1.32,1.02-.54,0-1.06-.22-1.38-.58"/>
        <polygon class="cls-1" points="268.2 60.68 268.2 60.99 265.82 60.99 265.82 57.34 268.17 57.34 268.17 57.65 266.15 57.65 266.15 59 268 59 268 59.31 266.15 59.31 266.15 60.68 268.2 60.68"/>
        <path class="cls-1" d="m271.33,60.48l.18-.24c.27.3.71.52,1.2.52.55,0,.98-.29.98-.7,0-.54-.71-.69-1.04-.76-.56-.12-1.21-.39-1.21-1.03,0-.59.53-.98,1.25-.98.5,0,.92.19,1.16.47l-.17.24c-.18-.22-.56-.41-1-.41-.52,0-.92.28-.92.67,0,.49.59.66.97.73.37.07,1.29.31,1.29,1.06,0,.6-.58,1.02-1.32,1.02-.54,0-1.06-.22-1.38-.58"/>
        <path class="cls-1" d="m277.08,60.48l.18-.24c.27.3.71.52,1.2.52.55,0,.98-.29.98-.7,0-.54-.71-.69-1.04-.76-.56-.12-1.21-.39-1.21-1.03,0-.59.53-.98,1.25-.98.5,0,.92.19,1.16.47l-.17.24c-.18-.22-.56-.41-1-.41-.52,0-.92.28-.92.67,0,.49.59.66.97.73.37.07,1.29.31,1.29,1.06,0,.6-.58,1.02-1.32,1.02-.54,0-1.06-.22-1.38-.58"/>
        <path class="cls-1" d="m282.87,59.16c0-1.07.82-1.89,1.91-1.89s1.91.81,1.91,1.89-.83,1.89-1.91,1.89-1.91-.81-1.91-1.89m3.47,0c0-.9-.68-1.57-1.57-1.57s-1.57.67-1.57,1.57.68,1.57,1.57,1.57,1.57-.67,1.57-1.57"/>
        <path class="cls-1" d="m290.97,59.45h-.59v1.55h-.32v-3.65h1.43c.61,0,1.07.46,1.07,1.06s-.46,1.05-1.07,1.05h-.12l1.26,1.55h-.4l-1.25-1.55Zm-.59-.29h1.1c.42,0,.75-.32.75-.76s-.32-.76-.75-.76h-1.1v1.51Z"/>
        <rect class="cls-1" x="295.94" y="57.34" width=".32" height="3.65"/>
        <path class="cls-1" d="m302.21,59.99h-1.92l-.42,1h-.35l1.54-3.65h.39l1.54,3.65h-.37l-.42-1Zm-.12-.3l-.84-2-.83,2h1.67Z"/>
      </g>
    </g>
  </g>
</svg>