<?xml version="1.0" encoding="UTF-8"?>
<svg id="Camada_1" data-name="Camada 1" xmlns="http://www.w3.org/2000/svg" xmlns:xlink="http://www.w3.org/1999/xlink" viewBox="0 0 226.12 163.01">
  <defs>
    <style>
      .cls-1 {
        fill: #fff;
      }

      .cls-2 {
        fill: url(#Gradiente_sem_nome_13);
      }

      .cls-3 {
        fill: url(#Gradiente_sem_nome_10);
      }

      .cls-4 {
        fill: url(#Gradiente_sem_nome_11);
      }
    </style>
    <linearGradient id="Gradiente_sem_nome_11" data-name="Gradiente sem nome 11" x1="32.08" y1="11.94" x2="190.47" y2="147.7" gradientUnits="userSpaceOnUse">
      <stop offset="0" stop-color="#063"/>
      <stop offset="1" stop-color="#00323d"/>
    </linearGradient>
    <linearGradient id="Gradiente_sem_nome_10" data-name="Gradiente sem nome 10" x1="49.43" y1="26.97" x2="173.88" y2="133.63" gradientUnits="userSpaceOnUse">
      <stop offset="0" stop-color="#00323d"/>
      <stop offset="1" stop-color="#063"/>
    </linearGradient>
    <linearGradient id="Gradiente_sem_nome_13" data-name="Gradiente sem nome 13" x1="31.56" y1="81.5" x2="194.56" y2="81.5" gradientUnits="userSpaceOnUse">
      <stop offset="0" stop-color="#063"/>
      <stop offset="1" stop-color="#00323d"/>
    </linearGradient>
  </defs>
  <rect class="cls-4" y="36.02" width="226.12" height="90.67" rx="28.22" ry="28.22"/>
  <g>
    <circle class="cls-3" cx="113.06" cy="81.5" r="81.5"/>
    <path class="cls-2" d="m113.06,6c41.63,0,75.5,33.87,75.5,75.5s-33.87,75.5-75.5,75.5S37.56,123.14,37.56,81.5,71.43,6,113.06,6m0-6C68.05,0,31.56,36.49,31.56,81.5s36.49,81.5,81.5,81.5,81.5-36.49,81.5-81.5S158.07,0,113.06,0h0Z"/>
  </g>
  <path class="cls-1" d="m138.06,126.71l-50.18-.03c-5.27-.76-15.23-5.83-15.23-19.6,0-29.04,27.45-50.31,28.62-51.2l.67-.51h22.23l.67.51c1.17.89,28.62,22.16,28.62,51.2,0,13.77-9.96,18.84-15.23,19.6l-.18.03Zm-49.62-5h49.23c1.35-.26,10.8-2.48,10.8-14.63,0-24.21-21.96-43.38-26.02-46.71h-18.79c-4.06,3.34-26.02,22.51-26.02,46.71,0,12.12,9.41,14.36,10.8,14.63Z"/>
  <g>
    <path class="cls-1" d="m116.33,106.97c-.16,0-.29,0-.38-.01h-9.41c-1.38,0-2.5-1.12-2.5-2.5s1.12-2.5,2.5-2.5h9.74s.01.01.05.01c.21,0,1.03-.03,1.52-.48.46-.43.56-1.27.56-1.9,0-2.55-2.12-2.92-3.03-2.95h-4.53c-.75.05-3.54.08-5.71-1.88-1.1-.99-2.42-2.87-2.42-6.15s1.32-5.17,2.42-6.16c2.15-1.92,4.89-1.88,5.66-1.82h8.58c1.38,0,2.5,1.12,2.5,2.5s-1.12,2.5-2.5,2.5l-8.96-.02h0s-1.24-.07-1.96.58c-.49.45-.74,1.26-.74,2.41s.25,1.96.75,2.42c.75.7,2.04.62,2.06.62h.22s4.7-.01,4.7-.01c3.22.06,7.95,2.23,7.95,7.95,0,2.98-1.21,4.7-2.22,5.62-1.72,1.56-3.86,1.76-4.86,1.76Z"/>
    <path class="cls-1" d="m113.19,85.63c-1.38,0-2.5-1.12-2.5-2.5v-5.33c0-1.38,1.12-2.5,2.5-2.5s2.5,1.12,2.5,2.5v5.33c0,1.38-1.12,2.5-2.5,2.5Z"/>
    <path class="cls-1" d="m113.19,112.29c-1.38,0-2.5-1.12-2.5-2.5v-5.33c0-1.38,1.12-2.5,2.5-2.5s2.5,1.12,2.5,2.5v5.33c0,1.38-1.12,2.5-2.5,2.5Z"/>
  </g>
  <path class="cls-1" d="m124.98,60.16h-22.92l-13.04-20.84,1.25-1.4c.34-.38,8.57-9.3,24.37-2.4.68.22,1.99-.28,3.5-.84,2.7-1.01,6.37-2.39,11.38-1.75.03,0,.07,0,.1,0,3.45,0,5.89,2.71,6.81,4.36l.68,1.22-12.12,21.66Zm-20.15-5h17.22l9.2-16.44c-.45-.43-1.05-.83-1.72-.8h-.24s-.24-.02-.24-.02c-3.86-.53-6.68.52-9.16,1.45-2.38.89-4.64,1.73-7.05.83l-.13-.05c-9.12-4.01-14.83-1.64-17.3-.02l9.42,15.05Z"/>
</svg>