<?xml version="1.0" encoding="UTF-8"?>
<svg id="Camada_1" data-name="Camada 1" xmlns="http://www.w3.org/2000/svg" xmlns:xlink="http://www.w3.org/1999/xlink" viewBox="0 0 226.12 163.01">
  <defs>
    <style>
      .cls-1 {
        fill: #fff;
      }

      .cls-2 {
        fill: url(#Gradiente_sem_nome_13);
      }

      .cls-3 {
        fill: url(#Gradiente_sem_nome_10);
      }

      .cls-4 {
        fill: url(#Gradiente_sem_nome_11);
      }
    </style>
    <linearGradient id="Gradiente_sem_nome_11" data-name="Gradiente sem nome 11" x1="32.08" y1="11.94" x2="190.47" y2="147.7" gradientUnits="userSpaceOnUse">
      <stop offset="0" stop-color="#063"/>
      <stop offset="1" stop-color="#00323d"/>
    </linearGradient>
    <linearGradient id="Gradiente_sem_nome_10" data-name="Gradiente sem nome 10" x1="49.43" y1="26.97" x2="173.88" y2="133.63" gradientUnits="userSpaceOnUse">
      <stop offset="0" stop-color="#00323d"/>
      <stop offset="1" stop-color="#063"/>
    </linearGradient>
    <linearGradient id="Gradiente_sem_nome_13" data-name="Gradiente sem nome 13" x1="31.56" y1="81.5" x2="194.56" y2="81.5" gradientUnits="userSpaceOnUse">
      <stop offset="0" stop-color="#063"/>
      <stop offset="1" stop-color="#00323d"/>
    </linearGradient>
  </defs>
  <rect class="cls-4" y="36.02" width="226.12" height="90.67" rx="28.22" ry="28.22"/>
  <g>
    <circle class="cls-3" cx="113.06" cy="81.5" r="81.5"/>
    <path class="cls-2" d="m113.06,6c41.63,0,75.5,33.87,75.5,75.5s-33.87,75.5-75.5,75.5S37.56,123.14,37.56,81.5,71.43,6,113.06,6m0-6C68.05,0,31.56,36.49,31.56,81.5s36.49,81.5,81.5,81.5,81.5-36.49,81.5-81.5S158.07,0,113.06,0h0Z"/>
  </g>
  <g>
    <path class="cls-1" d="m105.54,130.53c-2.73,0-5.58-.3-8.55-.9-1.35-.27-2.23-1.59-1.95-2.95.27-1.35,1.59-2.23,2.95-1.95,7.18,1.46,13.52.92,18.83-1.6,2.97-1.41,4.8-3.05,6.73-4.79,1.9-1.71,3.86-3.48,6.93-5.15,6.78-3.69,15.18-4.68,24.97-2.93,1.36.24,2.26,1.54,2.02,2.9-.24,1.36-1.54,2.27-2.9,2.02-8.64-1.54-15.94-.73-21.7,2.4-2.54,1.38-4.21,2.88-5.97,4.47-2.11,1.9-4.3,3.87-7.93,5.59-4.05,1.92-8.54,2.88-13.42,2.88Z"/>
    <path class="cls-1" d="m83.82,112.45c-1.32,0-2.43-1.04-2.5-2.38-.07-1.38,1-2.55,2.38-2.62,5.21-.25,9.66-1.52,13.61-3.87,2-1.19,3.4-2.47,4.88-3.83,1.73-1.59,3.51-3.22,6.24-4.74,3.32-1.84,6.65-1.45,9.87-1.09,2.68.31,5.21.6,7.82-.32,1.85-.65,2.91-1.75,4.25-3.15,1.56-1.63,3.33-3.47,6.49-4.62,5.67-2.06,12.59-1.29,21.15,2.36,1.27.54,1.86,2.01,1.32,3.28-.54,1.27-2.01,1.86-3.28,1.32-7.34-3.13-13.06-3.87-17.48-2.26-2.06.75-3.23,1.97-4.59,3.38-1.51,1.58-3.23,3.36-6.21,4.41-3.7,1.3-7.07.91-10.05.57-2.77-.32-4.96-.57-6.88.49-2.21,1.22-3.7,2.6-5.29,4.05-1.61,1.47-3.27,3-5.71,4.45-4.67,2.77-9.88,4.27-15.92,4.56-.04,0-.08,0-.12,0Z"/>
    <path class="cls-1" d="m70.17,95.23c-.81,0-1.6-.39-2.08-1.12-.76-1.15-.45-2.7.7-3.47l.54-.36c2.14-1.42,5.07-3.36,8.36-6.12.96-.8,1.78-1.61,2.65-2.47,1.69-1.67,3.44-3.39,6.08-4.86,4.98-2.78,9.95-1.52,14.76-.31,4.27,1.08,8.31,2.1,12.45.48,3.23-1.27,4.64-3.49,6.42-6.31,1.85-2.92,3.94-6.23,8.39-8.47,7.83-3.94,18.2-2.69,31.72,3.81,1.24.6,1.77,2.09,1.17,3.34-.6,1.24-2.09,1.77-3.34,1.17-11.86-5.7-21.05-7-27.31-3.85-3.21,1.62-4.77,4.07-6.41,6.67-1.91,3.01-4.07,6.43-8.83,8.29-5.63,2.21-10.87.88-15.5-.29-4.22-1.07-7.86-1.99-11.1-.18-2.05,1.15-3.42,2.5-5.01,4.06-.9.89-1.83,1.8-2.94,2.73-3.51,2.94-6.58,4.97-8.82,6.46l-.53.35c-.43.28-.91.42-1.38.42Z"/>
    <path class="cls-1" d="m56.51,78.02c-.18,0-.37-.02-.55-.06-1.35-.3-2.19-1.64-1.89-2.99,1.8-7.95,5.27-13.43,10.32-16.29,6.57-3.71,13.18-1.61,19.57.43,5.9,1.88,11.47,3.66,17.21,1.3,4.72-1.94,6.57-5.51,8.71-9.65,2.15-4.16,4.59-8.87,10.27-12.17,9.76-5.67,23.92-3.9,42.1,5.27,1.23.62,1.73,2.13,1.11,3.36-.62,1.23-2.13,1.73-3.36,1.11-16.56-8.36-29.12-10.18-37.33-5.41-4.42,2.57-6.33,6.25-8.34,10.15-2.38,4.59-4.83,9.34-11.25,11.97-7.42,3.05-14.44.81-20.63-1.16-5.86-1.87-10.92-3.48-15.58-.84-3.77,2.13-6.43,6.52-7.9,13.04-.26,1.16-1.29,1.95-2.44,1.95Z"/>
  </g>
</svg>