<?xml version="1.0" encoding="UTF-8"?>
<svg id="Camada_1" data-name="Camada 1" xmlns="http://www.w3.org/2000/svg" xmlns:xlink="http://www.w3.org/1999/xlink" viewBox="0 0 226.12 163.01">
  <defs>
    <style>
      .cls-1 {
        fill: #fff;
      }

      .cls-2 {
        fill: url(#Gradiente_sem_nome_13);
      }

      .cls-3 {
        fill: url(#Gradiente_sem_nome_10);
      }

      .cls-4 {
        fill: url(#Gradiente_sem_nome_11);
      }
    </style>
    <linearGradient id="Gradiente_sem_nome_11" data-name="Gradiente sem nome 11" x1="32.08" y1="11.94" x2="190.47" y2="147.7" gradientUnits="userSpaceOnUse">
      <stop offset="0" stop-color="#063"/>
      <stop offset="1" stop-color="#00323d"/>
    </linearGradient>
    <linearGradient id="Gradiente_sem_nome_10" data-name="Gradiente sem nome 10" x1="49.43" y1="26.97" x2="173.88" y2="133.63" gradientUnits="userSpaceOnUse">
      <stop offset="0" stop-color="#00323d"/>
      <stop offset="1" stop-color="#063"/>
    </linearGradient>
    <linearGradient id="Gradiente_sem_nome_13" data-name="Gradiente sem nome 13" x1="31.56" y1="81.5" x2="194.56" y2="81.5" gradientUnits="userSpaceOnUse">
      <stop offset="0" stop-color="#063"/>
      <stop offset="1" stop-color="#00323d"/>
    </linearGradient>
  </defs>
  <rect class="cls-4" y="36.02" width="226.12" height="90.67" rx="28.22" ry="28.22"/>
  <g>
    <circle class="cls-3" cx="113.06" cy="81.5" r="81.5"/>
    <path class="cls-2" d="m113.06,6c41.63,0,75.5,33.87,75.5,75.5s-33.87,75.5-75.5,75.5S37.56,123.14,37.56,81.5,71.43,6,113.06,6m0-6C68.05,0,31.56,36.49,31.56,81.5s36.49,81.5,81.5,81.5,81.5-36.49,81.5-81.5S158.07,0,113.06,0h0Z"/>
  </g>
  <path class="cls-1" d="m156.68,124.68c-2.97,0-6.12-.83-9.82-1.82-3.31-.88-7.06-1.87-11.75-2.59h0c-11.96-1.84-18.98-.15-25.77,1.48-6.8,1.64-13.84,3.33-25,1.17-13.97-2.71-34.44-11.89-34.02-22.99.18-4.72,4.05-6.94,8.15-9.29,4.11-2.36,9.23-5.29,13.63-11.6,4.16-5.96,4.83-10.83,5.47-15.54.66-4.78,1.34-9.72,5.87-14.53,8.54-9.05,21.89-8.54,38.8-7.89,10.67.41,45.66,2.76,47.71,15.89.92,5.92-4.74,10.58-10.22,15.09-4.11,3.38-8.77,7.22-8.05,10,.44,1.72,2.82,2.62,6.69,3.9,4.71,1.56,10.57,3.5,13.56,9.37,4.33,8.52.36,22.02-8.02,27.25-2.44,1.53-4.78,2.1-7.24,2.1Zm-20.81-9.35c4.96.76,9.01,1.84,12.27,2.7,6.64,1.76,9.71,2.45,13.14.31,6.18-3.86,9.37-14.52,6.21-20.75-2.05-4.04-6.43-5.49-10.67-6.89-4.33-1.43-8.82-2.91-9.97-7.4-1.5-5.86,4.2-10.56,9.72-15.1,4.19-3.45,8.94-7.37,8.46-10.47-1.02-6.55-22.89-10.9-42.96-11.66-16.25-.62-27.99-1.07-34.97,6.33-3.44,3.64-3.93,7.23-4.55,11.78-.69,5.05-1.48,10.77-6.33,17.72-5.04,7.23-10.94,10.61-15.24,13.08-4.04,2.32-5.57,3.36-5.64,5.14-.23,6.05,14.62,14.92,29.98,17.9,10.09,1.96,16.02.53,22.88-1.12,6.92-1.66,14.77-3.55,27.69-1.56h0Z"/>
  <path class="cls-1" d="m93.53,108.48c-7.38,0-17.56-1.47-18.3-6.79-.46-3.32,2.67-4.72,5.98-6.21,3.3-1.48,7.81-3.5,11.49-7.77,4.53-5.26,5.09-10.69,5.62-15.94.52-5.14,1.06-10.45,5.96-13.82,5.58-3.85,13.55-3.04,19.14-1,5.78,2.11,9.85,5.66,10.91,9.51.93,3.38-.53,6.28-1.82,8.83-1.36,2.71-2.16,4.47-1.38,6.48.41,1.06.96,1.47,2.97,2.85,1,.69,2.25,1.55,3.8,2.76,4.64,3.64,15.15,12.61,12.67,17.35-1.58,3.01-5.16,1.89-9.69.47-5.99-1.88-15.05-4.73-25.29-2.3-2.85.67-4.71,1.49-6.69,2.36-2.8,1.23-5.7,2.51-10.98,3.03h0c-1.24.12-2.76.2-4.42.2Zm-12.83-7.21c2.17,1.32,9.15,2.79,16.76,2.04h0c4.49-.44,6.79-1.45,9.45-2.63,1.99-.88,4.25-1.87,7.55-2.65,11.58-2.74,21.82.48,27.94,2.4.84.26,1.77.56,2.6.79-1.78-2.42-5.68-6.38-10.17-9.9-1.42-1.11-2.59-1.92-3.54-2.57-2.21-1.52-3.81-2.62-4.8-5.16-1.63-4.19.14-7.71,1.57-10.54,1.01-2,1.88-3.73,1.46-5.26-.6-2.19-3.73-4.65-7.8-6.13-5.56-2.03-11.28-1.86-14.59.42-2.86,1.97-3.3,5.01-3.83,10.21-.56,5.45-1.25,12.24-6.81,18.69-4.41,5.12-9.72,7.5-13.24,9.07-.87.39-1.88.84-2.55,1.21Z"/>
  <path class="cls-1" d="m117.41,91.21c-.56,0-1.06-.14-1.45-.25-.32-.09-.76-.21-1.4-.34h0c-.93-.18-1.52-.22-1.95-.25-.74-.05-1.99-.12-2.86-1.34-1.3-1.81-.23-3.63.48-4.84.55-.94,1.18-2.01,1.46-3.47.24-1.21.13-2.19.05-2.91-.22-2,.42-3.22,1.89-3.62,2.17-.6,3.71.55,6.02,8.53,1.1,3.79,1.43,6.59-.54,7.94-.6.41-1.18.54-1.72.54Zm-2.25-5.56s.07.01.11.02c-.01-.05-.02-.1-.04-.16-.02.05-.05.09-.07.14Z"/>
</svg>