<?xml version="1.0" encoding="UTF-8"?>
<svg id="Camada_1" data-name="Camada 1" xmlns="http://www.w3.org/2000/svg" xmlns:xlink="http://www.w3.org/1999/xlink" viewBox="0 0 226.12 163.01">
  <defs>
    <style>
      .cls-1 {
        fill: #fff;
      }

      .cls-2 {
        fill: url(#Gradiente_sem_nome_13);
      }

      .cls-3 {
        fill: url(#Gradiente_sem_nome_10);
      }

      .cls-4 {
        fill: url(#Gradiente_sem_nome_11);
      }
    </style>
    <linearGradient id="Gradiente_sem_nome_11" data-name="Gradiente sem nome 11" x1="32.08" y1="11.94" x2="190.47" y2="147.7" gradientUnits="userSpaceOnUse">
      <stop offset="0" stop-color="#063"/>
      <stop offset="1" stop-color="#00323d"/>
    </linearGradient>
    <linearGradient id="Gradiente_sem_nome_10" data-name="Gradiente sem nome 10" x1="49.43" y1="26.97" x2="173.88" y2="133.63" gradientUnits="userSpaceOnUse">
      <stop offset="0" stop-color="#00323d"/>
      <stop offset="1" stop-color="#063"/>
    </linearGradient>
    <linearGradient id="Gradiente_sem_nome_13" data-name="Gradiente sem nome 13" x1="31.56" y1="81.5" x2="194.56" y2="81.5" gradientUnits="userSpaceOnUse">
      <stop offset="0" stop-color="#063"/>
      <stop offset="1" stop-color="#00323d"/>
    </linearGradient>
  </defs>
  <rect class="cls-4" x="0" y="36.02" width="226.12" height="90.67" rx="28.22" ry="28.22"/>
  <g>
    <circle class="cls-3" cx="113.06" cy="81.5" r="81.5"/>
    <path class="cls-2" d="m113.06,6c41.63,0,75.5,33.87,75.5,75.5s-33.87,75.5-75.5,75.5S37.56,123.14,37.56,81.5,71.43,6,113.06,6M113.06,0C68.05,0,31.56,36.49,31.56,81.5s36.49,81.5,81.5,81.5,81.5-36.49,81.5-81.5S158.07,0,113.06,0h0Z"/>
  </g>
  <rect class="cls-1" x="102.91" y="106.65" width="17.54" height="5" transform="translate(2.02 220.32) rotate(-89.73)"/>
  <g>
    <path class="cls-1" d="m111.64,120.42c-.29,0-.59-.05-.87-.16l-35.25-13.11c-.97-.36-1.62-1.29-1.63-2.33,0-1.04.63-1.97,1.6-2.35l26.34-10.18,1.8,4.66-20.19,7.8,28.21,10.49,29.54-10.54-15.16-5.86,1.8-4.66,21.43,8.29c.97.38,1.61,1.32,1.6,2.36-.01,1.04-.68,1.97-1.66,2.32l-36.73,13.11c-.27.1-.56.15-.84.15Z"/>
    <path class="cls-1" d="m111.67,102.03c-.24,0-.48-.03-.71-.11-11.87-3.61-20.98-13.35-23.78-25.42-2.81-12.06,1.07-24.82,10.13-33.31.66-.61,1.59-.83,2.44-.57,11.87,3.63,20.98,13.38,23.78,25.43.17.7.31,1.46.45,2.33.16,1-.31,2-1.18,2.53-2.79,1.68-5.18,4.04-6.92,6.82-3.52,5.67-4.13,12.48-1.67,18.69.4,1.01.11,2.16-.73,2.85-.48.49-1.14.76-1.81.76Zm-11.99-54.16c-7.01,7.25-9.93,17.65-7.63,27.5,2.05,8.85,8.07,16.24,16.14,20.12-1.17-6.29.02-12.9,3.45-18.4,1.84-2.95,4.28-5.52,7.11-7.5-.03-.13-.06-.26-.09-.39-2.29-9.86-9.49-17.91-18.97-21.33Z"/>
    <path class="cls-1" d="m113.73,104.25c-.27,0-.54,0-.82-.01-.9-.03-1.71-.54-2.13-1.33-.5-.94-.9-1.81-1.23-2.67-3-7.56-2.23-16.22,2.08-23.15,2.15-3.45,5.12-6.37,8.58-8.46,4.3-2.58,9.22-3.86,14.21-3.7.9.03,1.71.53,2.13,1.33,4.32,8.12,3.99,18.01-.86,25.81-4.71,7.56-13.07,12.18-21.96,12.18Zm19.06-34.31c-3.53.13-6.96,1.15-10,2.98-2.79,1.68-5.18,4.04-6.91,6.82-3.52,5.67-4.13,12.48-1.67,18.69.1.27.21.54.34.81,6.87-.27,13.25-3.94,16.9-9.8,3.65-5.87,4.13-13.21,1.34-19.5Z"/>
  </g>
</svg>