<?xml version="1.0" encoding="UTF-8"?>
<svg id="Camada_1" data-name="Camada 1" xmlns="http://www.w3.org/2000/svg" xmlns:xlink="http://www.w3.org/1999/xlink" viewBox="0 0 226.12 163.01">
  <defs>
    <style>
      .cls-1 {
        fill: #fff;
      }

      .cls-2 {
        fill: url(#Gradiente_sem_nome_13);
      }

      .cls-3 {
        fill: url(#Gradiente_sem_nome_10);
      }

      .cls-4 {
        fill: url(#Gradiente_sem_nome_11);
      }
    </style>
    <linearGradient id="Gradiente_sem_nome_11" data-name="Gradiente sem nome 11" x1="32.08" y1="11.94" x2="190.47" y2="147.7" gradientUnits="userSpaceOnUse">
      <stop offset="0" stop-color="#063"/>
      <stop offset="1" stop-color="#00323d"/>
    </linearGradient>
    <linearGradient id="Gradiente_sem_nome_10" data-name="Gradiente sem nome 10" x1="49.43" y1="26.97" x2="173.88" y2="133.63" gradientUnits="userSpaceOnUse">
      <stop offset="0" stop-color="#00323d"/>
      <stop offset="1" stop-color="#063"/>
    </linearGradient>
    <linearGradient id="Gradiente_sem_nome_13" data-name="Gradiente sem nome 13" x1="31.56" y1="81.5" x2="194.56" y2="81.5" gradientUnits="userSpaceOnUse">
      <stop offset="0" stop-color="#063"/>
      <stop offset="1" stop-color="#00323d"/>
    </linearGradient>
  </defs>
  <rect class="cls-4" y="36.02" width="226.12" height="90.67" rx="28.22" ry="28.22"/>
  <g>
    <circle class="cls-3" cx="113.06" cy="81.5" r="81.5"/>
    <path class="cls-2" d="m113.06,6c41.63,0,75.5,33.87,75.5,75.5s-33.87,75.5-75.5,75.5S37.56,123.14,37.56,81.5,71.43,6,113.06,6m0-6C68.05,0,31.56,36.49,31.56,81.5s36.49,81.5,81.5,81.5,81.5-36.49,81.5-81.5S158.07,0,113.06,0h0Z"/>
  </g>
  <g>
    <path class="cls-1" d="m81.64,101.06c-.39,0-.78-.09-1.14-.27l-27.33-13.96c-.79-.4-1.3-1.19-1.36-2.08-.05-.88.36-1.73,1.1-2.22l22.15-14.93c.75-.51,1.72-.57,2.53-.15l27.33,13.96c.79.4,1.3,1.19,1.36,2.08.05.88-.36,1.73-1.1,2.22l-22.15,14.93c-.42.28-.91.43-1.4.43Zm-22.41-16.75l22.24,11.36,17.42-11.74-22.24-11.36-17.42,11.74Z"/>
    <path class="cls-1" d="m120.21,122.39c-.39,0-.78-.09-1.14-.27l-27.33-13.96c-.79-.4-1.3-1.19-1.36-2.08-.05-.88.36-1.73,1.1-2.22l22.15-14.94c.75-.51,1.72-.57,2.53-.15l27.33,13.96c.79.4,1.3,1.19,1.36,2.08.05.88-.36,1.73-1.1,2.22l-22.15,14.93c-.42.28-.91.43-1.4.43Zm-22.41-16.75l22.24,11.36,17.41-11.74-22.24-11.36-17.41,11.74Z"/>
    <path class="cls-1" d="m153.46,99.18c-.39,0-.78-.09-1.14-.27l-27.33-13.96c-.79-.4-1.3-1.19-1.36-2.08-.05-.88.36-1.73,1.1-2.22l22.15-14.94c.75-.51,1.72-.57,2.53-.15l27.33,13.96c.79.4,1.3,1.19,1.36,2.08.05.88-.36,1.73-1.1,2.22l-22.15,14.94c-.42.28-.91.43-1.4.43Zm-22.41-16.75l22.24,11.36,17.42-11.74-22.24-11.36-17.42,11.74Z"/>
    <path class="cls-1" d="m114.57,77.22c-.39,0-.78-.09-1.14-.27l-27.33-13.96c-.79-.4-1.3-1.19-1.36-2.08-.05-.88.36-1.73,1.1-2.22l22.15-14.94c.75-.51,1.72-.57,2.53-.15l27.33,13.96c.79.4,1.3,1.19,1.36,2.08.05.88-.36,1.73-1.1,2.22l-22.15,14.93c-.42.28-.91.43-1.4.43Zm-22.41-16.75l22.24,11.36,17.42-11.74-22.24-11.36-17.42,11.74Z"/>
  </g>
</svg>