<?xml version="1.0" encoding="UTF-8"?>
<svg id="Camada_1" data-name="Camada 1" xmlns="http://www.w3.org/2000/svg" xmlns:xlink="http://www.w3.org/1999/xlink" viewBox="0 0 226.12 163.01">
  <defs>
    <style>
      .cls-1 {
        fill: #fff;
      }

      .cls-2 {
        fill: url(#Gradiente_sem_nome_13);
      }

      .cls-3 {
        fill: url(#Gradiente_sem_nome_10);
      }

      .cls-4 {
        fill: url(#Gradiente_sem_nome_11);
      }
    </style>
    <linearGradient id="Gradiente_sem_nome_11" data-name="Gradiente sem nome 11" x1="32.08" y1="11.94" x2="190.47" y2="147.7" gradientUnits="userSpaceOnUse">
      <stop offset="0" stop-color="#063"/>
      <stop offset="1" stop-color="#00323d"/>
    </linearGradient>
    <linearGradient id="Gradiente_sem_nome_10" data-name="Gradiente sem nome 10" x1="49.43" y1="26.97" x2="173.88" y2="133.63" gradientUnits="userSpaceOnUse">
      <stop offset="0" stop-color="#00323d"/>
      <stop offset="1" stop-color="#063"/>
    </linearGradient>
    <linearGradient id="Gradiente_sem_nome_13" data-name="Gradiente sem nome 13" x1="31.56" y1="81.5" x2="194.56" y2="81.5" gradientUnits="userSpaceOnUse">
      <stop offset="0" stop-color="#063"/>
      <stop offset="1" stop-color="#00323d"/>
    </linearGradient>
  </defs>
  <rect class="cls-4" x="0" y="36.02" width="226.12" height="90.67" rx="28.22" ry="28.22"/>
  <g>
    <circle class="cls-3" cx="113.06" cy="81.5" r="81.5"/>
    <path class="cls-2" d="m113.06,6c41.63,0,75.5,33.87,75.5,75.5s-33.87,75.5-75.5,75.5S37.56,123.14,37.56,81.5,71.43,6,113.06,6m0-6C68.05,0,31.56,36.49,31.56,81.5s36.49,81.5,81.5,81.5,81.5-36.49,81.5-81.5S158.07,0,113.06,0h0Z"/>
  </g>
  <g>
    <path class="cls-1" d="m113.05,79.42c-11.44,0-22.25-2.76-29.67-7.58-6.26-4.06-9.71-9.36-9.71-14.92,0-12.62,17.3-22.5,39.38-22.5s39.39,9.88,39.39,22.5c0,5.56-3.45,10.86-9.71,14.92-7.43,4.82-18.25,7.58-29.68,7.58Zm0-40c-18.64,0-34.38,8.01-34.38,17.5,0,3.81,2.64,7.62,7.43,10.72,6.63,4.31,16.46,6.78,26.95,6.78s20.32-2.47,26.96-6.78c4.79-3.11,7.43-6.92,7.43-10.72,0-9.49-15.75-17.5-34.39-17.5Z"/>
    <path class="cls-1" d="m113.05,137.09c-2.75,0-5.3-.67-7.16-1.87-1.87-1.21-2.9-2.89-2.9-4.73v-30.44h20.13v30.44c0,1.84-1.03,3.52-2.9,4.73-1.86,1.21-4.41,1.87-7.17,1.87Zm-5.06-32.04v25.44s.17.24.62.53c1.04.67,2.7,1.07,4.44,1.07s3.42-.4,4.45-1.07c.44-.29.6-.53.63-.59v-25.38h-10.14Z"/>
    <path class="cls-1" d="m135.63,127.92c-2.49,0-2.53-2.53-2.54-3.61,0-.56-.01-1.29-.01-2.09v-24.28h5.11v24.28c0,.79,0,1.52-.01,2.09-.02,1.08-.06,3.61-2.54,3.61Z"/>
    <path class="cls-1" d="m113.05,105.05c-22.08,0-39.38-9.88-39.38-22.5v-25.63h5c0,3.81,2.64,7.62,7.43,10.72,6.63,4.31,16.46,6.78,26.95,6.78s20.32-2.47,26.96-6.78c4.79-3.11,7.43-6.92,7.43-10.72h5v25.63c0,12.62-17.3,22.5-39.39,22.5Zm-34.38-37.02v14.52c0,9.49,15.74,17.5,34.38,17.5s34.39-8.01,34.39-17.5v-14.52c-1.32,1.36-2.9,2.63-4.71,3.81-7.43,4.82-18.25,7.58-29.68,7.58s-22.25-2.76-29.67-7.58c-1.81-1.17-3.38-2.45-4.71-3.81Z"/>
    <path class="cls-1" d="m113.06,93.5c-2.28,0-4.13-1.85-4.13-4.13s1.85-4.13,4.13-4.13,4.13,1.85,4.13,4.13-1.85,4.13-4.13,4.13Zm0-5c-.48,0-.87.39-.87.87s.39.87.87.87.87-.39.87-.87-.39-.87-.87-.87Z"/>
    <path class="cls-1" d="m130.17,91.05c-2.28,0-4.13-1.85-4.13-4.13s1.85-4.13,4.13-4.13,4.13,1.85,4.13,4.13-1.85,4.13-4.13,4.13Zm0-5c-.48,0-.87.39-.87.87s.39.87.87.87.87-.39.87-.87-.39-.87-.87-.87Z"/>
  </g>
</svg>