<?xml version="1.0" encoding="UTF-8"?>
<svg id="Camada_1" data-name="Camada 1" xmlns="http://www.w3.org/2000/svg" xmlns:xlink="http://www.w3.org/1999/xlink" viewBox="0 0 226.12 163.01">
  <defs>
    <style>
      .cls-1 {
        fill: #fff;
      }

      .cls-2 {
        fill: url(#Gradiente_sem_nome_13);
      }

      .cls-3 {
        fill: url(#Gradiente_sem_nome_10);
      }

      .cls-4 {
        fill: url(#Gradiente_sem_nome_11);
      }
    </style>
    <linearGradient id="Gradiente_sem_nome_11" data-name="Gradiente sem nome 11" x1="32.08" y1="11.94" x2="190.47" y2="147.7" gradientUnits="userSpaceOnUse">
      <stop offset="0" stop-color="#063"/>
      <stop offset="1" stop-color="#00323d"/>
    </linearGradient>
    <linearGradient id="Gradiente_sem_nome_10" data-name="Gradiente sem nome 10" x1="49.43" y1="26.97" x2="173.88" y2="133.63" gradientUnits="userSpaceOnUse">
      <stop offset="0" stop-color="#00323d"/>
      <stop offset="1" stop-color="#063"/>
    </linearGradient>
    <linearGradient id="Gradiente_sem_nome_13" data-name="Gradiente sem nome 13" x1="31.56" y1="81.5" x2="194.56" y2="81.5" gradientUnits="userSpaceOnUse">
      <stop offset="0" stop-color="#063"/>
      <stop offset="1" stop-color="#00323d"/>
    </linearGradient>
  </defs>
  <rect class="cls-4" x="0" y="36.02" width="226.12" height="90.67" rx="28.22" ry="28.22"/>
  <g>
    <circle class="cls-3" cx="113.06" cy="81.5" r="81.5"/>
    <path class="cls-2" d="m113.06,6c41.63,0,75.5,33.87,75.5,75.5s-33.87,75.5-75.5,75.5S37.56,123.14,37.56,81.5,71.43,6,113.06,6m0-6C68.05,0,31.56,36.49,31.56,81.5s36.49,81.5,81.5,81.5,81.5-36.49,81.5-81.5S158.07,0,113.06,0h0Z"/>
  </g>
  <g>
    <path class="cls-1" d="m142.19,126.55l-10.98-8.09-10.87,8.01v-17.21h-39.43c-5.46,0-9.91-4.44-9.91-9.9v-35.56c0-5.46,4.45-9.91,9.91-9.91h64.3c5.46,0,9.9,4.45,9.9,9.91v35.56c0,5.46-4.44,9.9-9.9,9.9h-3.02v17.29Zm-10.98-14.3l5.98,4.41v-9.75c-1.86.8-3.91,1.24-6.06,1.24-2,0-3.97-.39-5.79-1.13v9.55l5.87-4.33Zm10.14-7.98h3.86c2.7,0,4.9-2.2,4.9-4.9v-35.56c0-2.71-2.2-4.91-4.9-4.91h-64.3c-2.71,0-4.91,2.2-4.91,4.91v35.56c0,2.7,2.2,4.9,4.91,4.9h39.99c-3.29-2.92-5.16-7.09-5.16-11.5,0-8.48,6.9-15.38,15.39-15.38s15.39,6.9,15.39,15.38c0,4.57-2,8.68-5.17,11.5Zm-10.22-21.88c-5.73,0-10.39,4.66-10.39,10.38,0,3.08,1.35,5.98,3.71,7.96,1.86,1.57,4.23,2.43,6.68,2.43,5.73,0,10.39-4.66,10.39-10.39s-4.66-10.38-10.39-10.38Z"/>
    <path class="cls-1" d="m131.13,108.15c-3.63,0-7.14-1.28-9.9-3.61-3.49-2.93-5.49-7.22-5.49-11.78,0-8.48,6.9-15.38,15.39-15.38s15.39,6.9,15.39,15.38-6.9,15.39-15.39,15.39Zm0-25.77c-5.73,0-10.39,4.66-10.39,10.38,0,3.08,1.35,5.98,3.71,7.96,1.86,1.57,4.23,2.43,6.68,2.43,5.73,0,10.39-4.66,10.39-10.39s-4.66-10.38-10.39-10.38Z"/>
    <path class="cls-1" d="m137.21,72.82h-49.48c-1.38,0-2.5-1.12-2.5-2.5s1.12-2.5,2.5-2.5h49.48c1.38,0,2.5,1.12,2.5,2.5s-1.12,2.5-2.5,2.5Z"/>
    <path class="cls-1" d="m112.47,84.08h-24.74c-1.38,0-2.5-1.12-2.5-2.5s1.12-2.5,2.5-2.5h24.74c1.38,0,2.5,1.12,2.5,2.5s-1.12,2.5-2.5,2.5Z"/>
    <path class="cls-1" d="m131.13,108.15c-3.63,0-7.14-1.28-9.9-3.61-3.49-2.93-5.49-7.22-5.49-11.78,0-8.48,6.9-15.38,15.39-15.38s15.39,6.9,15.39,15.38-6.9,15.39-15.39,15.39Zm0-25.77c-5.73,0-10.39,4.66-10.39,10.38,0,3.08,1.35,5.98,3.71,7.96,1.86,1.57,4.23,2.43,6.68,2.43,5.73,0,10.39-4.66,10.39-10.39s-4.66-10.38-10.39-10.38Z"/>
    <rect class="cls-1" x="137.19" y="102.41" width="5" height="4.35"/>
    <polygon class="cls-1" points="125.34 106.76 120.34 106.76 120.34 102.63 125.34 102.58 125.34 106.76"/>
  </g>
</svg>